Coordinates
version=1
nRows=14
nColumns=46
inDegrees=yes

Units are S.I. units (second, meters, Newtons, ...)
Angles are in degrees.

endheader
time	pelvis_tilt	pelvis_list	pelvis_rotation	pelvis_tx	pelvis_ty	pelvis_tz	bb_angle	bb_tx	bb_ty	bb_tz	hip_flexion_r	hip_adduction_r	hip_rotation_r	knee_angle_r	knee_angle_r_beta	ankle_angle_r	subtalar_angle_r	mtp_angle_r	crank_angle_r	hip_flexion_l	hip_adduction_l	hip_rotation_l	knee_angle_l	knee_angle_l_beta	ankle_angle_l	subtalar_angle_l	mtp_angle_l	crank_angle_l	lumbar_extension	lumbar_bending	lumbar_rotation	arm_flex_r	arm_add_r	arm_rot_r	elbow_flex_r	pro_sup_r	wrist_flex_r	wrist_dev_r	arm_flex_l	arm_add_l	arm_rot_l	elbow_flex_l	pro_sup_l	wrist_flex_l	wrist_dev_l
      0.00500000	    -27.16249204	     -0.26648675	     -2.86600932	      0.14669573	      1.03880646	     -0.20884565	      0.00000000	      0.50000000	      0.00000000	      0.25000000	     88.68018058	     -1.38568270	      2.24617461	     76.05730347	      1.32745037	     -3.60794103	     -5.80966996	      0.00000000	      0.00000000	     64.64088819	     -5.52494255	      3.62642002	     81.05142619	      1.41461425	     -8.25788974	    -13.22070836	      0.00000000	      0.00000000	    -41.08541486	     -0.94223501	      2.14782261	     73.42639111	     -9.02040970	     24.03033048	     52.94583229	     47.81034463	      0.00000000	      0.00000000	     71.90415320	     -9.24595396	     17.77393765	     53.40982253	     46.55010900	      0.00000000	      0.00000000
      0.01000000	    -27.14845252	     -0.25640078	     -2.89055054	      0.14675345	      1.03885453	     -0.20883825	      0.00000000	      0.50000000	      0.00000000	      0.25000000	     88.67827241	     -1.35804302	      2.28892470	     76.08991289	      1.32801951	     -3.53716478	     -5.71450138	      0.00000000	      0.00000000	     64.58674704	     -5.51540699	      3.67414185	     81.00733268	      1.41384467	     -8.08379279	    -13.01063850	      0.00000000	      0.00000000	    -41.13909679	     -0.96302822	      2.16194529	     73.27492518	     -8.99443583	     23.67129759	     53.41923762	     47.72813624	      0.00000000	      0.00000000	     71.70622757	     -9.24993779	     17.50768710	     53.87140012	     46.50653396	      0.00000000	      0.00000000
      0.01500000	    -27.19521079	     -0.26340967	     -2.85630892	      0.14674889	      1.03884468	     -0.20900054	      0.00000000	      0.50000000	      0.00000000	      0.25000000	     88.73803072	     -1.42702432	      2.20926140	     76.07803848	      1.32781226	     -3.71208486	     -5.97684502	      0.00000000	      0.00000000	     64.65612656	     -5.46777769	      3.61136648	     80.97010053	      1.41319485	     -8.66361984	    -13.76248382	      0.00000000	      0.00000000	    -41.07452680	     -0.92996002	      2.16810693	     73.16275311	     -8.98485330	     23.53933886	     53.50705016	     47.16187241	      0.00000000	      0.00000000	     71.62200418	     -9.12429042	     17.45822372	     53.93114990	     46.07603760	      0.00000000	      0.00000000
      0.02000000	    -27.17563377	     -0.24443922	     -2.83616073	      0.14676076	      1.03881033	     -0.20875253	      0.00000000	      0.50000000	      0.00000000	      0.25000000	     88.73630795	     -1.43059661	      2.23660979	     76.13863054	      1.32886979	     -3.61677759	     -5.87478923	      0.00000000	      0.00000000	     64.62943516	     -5.47299930	      3.63990840	     80.96466234	      1.41309994	     -8.47701803	    -13.45530639	      0.00000000	      0.00000000	    -41.14489284	     -0.98075216	      2.13075440	     73.05145415	     -8.98939505	     23.22262596	     53.94345048	     47.09407225	      0.00000000	      0.00000000	     71.56259397	     -9.15348957	     17.20356787	     54.37160284	     46.03927103	      0.00000000	      0.00000000
      0.02500000	    -27.28718162	     -0.30595820	     -2.81574977	      0.14662305	      1.03863066	     -0.20881074	      0.00000000	      0.50000000	      0.00000000	      0.25000000	     88.88593651	     -1.48253011	      2.12973714	     76.20678644	      1.33005934	     -3.53545056	     -5.76239224	      0.00000000	      0.00000000	     64.78138534	     -5.48741726	      3.71773442	     80.97996538	      1.41336702	     -8.58016882	    -13.56042011	      0.00000000	      0.00000000	    -40.89828823	     -0.88703986	      2.15200158	     73.23387196	     -9.04922773	     23.94259651	     53.12855950	     47.00070898	      0.00000000	      0.00000000	     71.75380056	     -9.16613431	     17.71309064	     53.48625326	     45.91616399	      0.00000000	      0.00000000
      0.03000000	    -27.21027105	     -0.29831510	     -2.83269184	      0.14672801	      1.03893409	     -0.20879408	      0.00000000	      0.50000000	      0.00000000	      0.25000000	     88.79526066	     -1.44324339	      2.19807622	     76.20513281	      1.33003047	     -3.49212837	     -5.62982216	      0.00000000	      0.00000000	     64.62823388	     -5.47440197	      3.76902485	     80.88194269	      1.41165621	     -8.36442296	    -13.28326291	      0.00000000	      0.00000000	    -41.06238482	     -0.90685128	      2.16726019	     73.12943537	     -9.04261532	     23.54315244	     53.62833717	     46.93296790	      0.00000000	      0.00000000	     71.57594800	     -9.19860127	     17.40919151	     53.98542373	     45.88580742	      0.00000000	      0.00000000
      0.03500000	    -27.22737481	     -0.27362318	     -2.85564378	      0.14665383	      1.03885306	     -0.20878790	      0.00000000	      0.50000000	      0.00000000	      0.25000000	     88.82967621	     -1.42670053	      2.19869174	     76.18416804	      1.32966457	     -3.60277964	     -5.83016682	      0.00000000	      0.00000000	     64.68743441	     -5.50940643	      3.65013956	     80.92910994	      1.41247943	     -8.60174894	    -13.55186752	      0.00000000	      0.00000000	    -41.00517636	     -0.95144757	      2.15554283	     73.30697243	     -9.09788720	     24.00116207	     53.15728528	     46.93131484	      0.00000000	      0.00000000	     71.80225331	     -9.21291545	     17.78919316	     53.53138300	     45.87039851	      0.00000000	      0.00000000
      0.04000000	    -27.21838206	     -0.27096876	     -2.85398716	      0.14668778	      1.03886759	     -0.20879279	      0.00000000	      0.50000000	      0.00000000	      0.25000000	     88.84785081	     -1.44592648	      2.19426908	     76.24389906	      1.33070707	     -3.54569929	     -5.72118827	      0.00000000	      0.00000000	     64.65925329	     -5.50754092	      3.65285148	     80.88733496	      1.41175032	     -8.55188630	    -13.47928815	      0.00000000	      0.00000000	    -40.97780345	     -0.94020316	      2.15448278	     73.45926829	     -9.15853393	     24.40330435	     52.84256549	     46.89734493	      0.00000000	      0.00000000	     71.93674487	     -9.29326104	     18.14261046	     53.19640865	     45.83358786	      0.00000000	      0.00000000
      0.04500000	    -27.24402159	     -0.26554868	     -2.88915078	      0.14670320	      1.03874237	     -0.20869237	      0.00000000	      0.50000000	      0.00000000	      0.25000000	     88.89530399	     -1.39866321	      2.22669301	     76.29525979	      1.33160349	     -3.42739805	     -5.56730367	      0.00000000	      0.00000000	     64.67967659	     -5.55205788	      3.65853090	     80.91521206	      1.41223687	     -8.24593095	    -13.08428955	      0.00000000	      0.00000000	    -41.04216689	     -0.97728224	      2.14888634	     73.11483497	     -9.11601965	     23.65003854	     53.85927219	     46.78024115	      0.00000000	      0.00000000	     71.60800435	     -9.31234009	     17.58032208	     54.23605474	     45.79392879	      0.00000000	      0.00000000
      0.05000000	    -27.21412327	     -0.27626248	     -2.87307211	      0.14668201	      1.03884655	     -0.20877537	      0.00000000	      0.50000000	      0.00000000	      0.25000000	     88.86627281	     -1.43188085	      2.19438197	     76.29047800	      1.33152003	     -3.50050830	     -5.68498849	      0.00000000	      0.00000000	     64.64150648	     -5.52330031	      3.65757900	     80.86525860	      1.41136501	     -8.55019486	    -13.47306103	      0.00000000	      0.00000000	    -40.97563158	     -0.94439115	      2.16193096	     73.42899767	     -9.14510570	     24.37927879	     52.86692109	     46.72785691	      0.00000000	      0.00000000	     71.91603936	     -9.31988403	     18.15236532	     53.25378174	     45.71167904	      0.00000000	      0.00000000
      0.05500000	    -27.17125337	     -0.26673326	     -2.88557297	      0.14673438	      1.03894716	     -0.20880963	      0.00000000	      0.50000000	      0.00000000	      0.25000000	     88.82153155	     -1.44729106	      2.18818373	     76.29925679	      1.33167325	     -3.46365610	     -5.60993401	      0.00000000	      0.00000000	     64.57012194	     -5.53368547	      3.63730188	     80.85193940	      1.41113255	     -8.43366878	    -13.34309881	      0.00000000	      0.00000000	    -41.08820625	     -0.94949157	      2.16592706	     73.38504949	     -9.12797057	     24.03628915	     53.28850134	     46.68192350	      0.00000000	      0.00000000	     71.83457819	     -9.32900232	     17.88977132	     53.69018190	     45.69574763	      0.00000000	      0.00000000
      0.06000000	    -27.24949904	     -0.29963934	     -2.90739308	      0.14668852	      1.03870597	     -0.20870742	      0.00000000	      0.50000000	      0.00000000	      0.25000000	     88.95040883	     -1.42803649	      2.09990360	     76.37314176	      1.33296278	     -3.53865116	     -5.67650052	      0.00000000	      0.00000000	     64.67436443	     -5.57754619	      3.65602978	     80.85660197	      1.41121393	     -8.62895465	    -13.56792684	      0.00000000	      0.00000000	    -40.93138680	     -0.99300050	      2.15681667	     73.32718515	     -9.13022270	     24.24394315	     53.02956399	     46.63290306	      0.00000000	      0.00000000	     71.81755499	     -9.31722537	     18.06019380	     53.46806809	     45.65379632	      0.00000000	      0.00000000
      0.06500000	    -27.22362641	     -0.26073484	     -2.90992682	      0.14667664	      1.03878077	     -0.20879677	      0.00000000	      0.50000000	      0.00000000	      0.25000000	     88.91117540	     -1.43689801	      2.17731162	     76.34487914	      1.33246951	     -3.44124647	     -5.57627710	      0.00000000	      0.00000000	     64.62509292	     -5.53835343	      3.62796842	     80.83430861	      1.41082483	     -8.54363117	    -13.50360936	      0.00000000	      0.00000000	    -40.95104680	     -0.96040958	      2.15990826	     73.43088004	     -9.07322484	     24.34524329	     52.85092486	     46.22201221	      0.00000000	      0.00000000	     71.89893161	     -9.29199363	     18.11441815	     53.25785535	     45.31049251	      0.00000000	      0.00000000
      0.07000000	    -27.21794159	     -0.25142705	     -2.93476308	      0.14672425	      1.03882685	     -0.20873897	      0.00000000	      0.50000000	      0.00000000	      0.25000000	     88.90660891	     -1.41174677	      2.19573099	     76.36969395	      1.33290261	     -3.34351966	     -5.47559256	      0.00000000	      0.00000000	     64.56755127	     -5.54123764	      3.66009365	     80.78480710	      1.40996087	     -8.27834232	    -13.23118041	      0.00000000	      0.00000000	    -41.00881389	     -0.98185814	      2.18177891	     73.24301511	     -9.04443393	     23.89698194	     53.46150822	     46.18636211	      0.00000000	      0.00000000	     71.65618891	     -9.30779105	     17.77924404	     53.86167729	     45.31040925	      0.00000000	      0.00000000
